<svg xmlns="http://www.w3.org/2000/svg" width="528.394" height="411.697" viewBox="0 0 528.394 411.697">
  <g id="fAhAFq01" transform="translate(-62.5 216)">
    <path id="Path_457" data-name="Path 457" d="M209.922-111.316,113.5-6.632l8.22,8.581,7.9,8.581,96.738-105.37,97.054-105.714-6.639-7.551c-3.794-4.462-7.587-7.894-8.536-7.894C306.976-216,263.033-168.978,209.922-111.316Z" transform="translate(110.23 0)" fill="#01274e"/>
    <path id="Path_458" data-name="Path 458" d="M267.326-208.849c-1.9,3.775-3.161,8.581-2.529,10.64,1.9,6.178-76.821,81.688-85.041,81.688-7.587,0-16.755,8.237-16.755,15.1,0,2.4,2.845,7.208,6.007,10.3,8.22,8.237,18.652,4.119,21.5-8.237,1.9-6.864,15.807-23,42.995-49.768,22.446-21.623,41.73-38.785,42.995-37.755,4.11,2.4,16.123-8.581,16.123-15.1C292.617-216.057,273.332-221.548,267.326-208.849ZM183.233-99.017c-2.529,4.805-10.749,3.775-10.749-1.373,0-2.746.948-5.835,2.213-6.865C177.542-110.343,185.446-102.792,183.233-99.017Z" transform="translate(217.218 0.057)" fill="#0badf0"/>
    <path id="Path_459" data-name="Path 459" d="M329.36-199.239c-1.581,3.775-3.161,8.924-3.161,11.326-.316,2.4-27.5,28.831-61.015,58.348l-60.7,54.23H175.4c-24.027,0-29.4,1.03-29.4,5.148s5.374,5.148,30.982,5.148l30.665-.343,62.911-55.946c34.775-30.89,64.808-55.6,67.021-54.573,6.639,2.746,17.071-5.492,17.071-13.729C354.651-205.417,336-212.282,329.36-199.239Zm17.071,10.983c-2.529,4.805-10.749,3.775-10.749-1.373,0-2.746.948-5.835,2.213-6.865C340.741-199.582,348.644-192.031,346.431-188.256Z" transform="translate(180.475 24.083)" fill="#0daef1"/>
    <path id="Path_460" data-name="Path 460" d="M313.7-175.065c-1.265,2.059-3.161,7.208-4.426,11.326-.948,4.462-16.755,21.28-35.091,37.755L240.987-96.123l-53.743-.686c-42.995-.343-53.743.686-53.743,4.462,0,3.432,11.7,4.805,55.008,5.492,47.1.686,55.64,0,60.7-4.805,7.9-7.894,83.777-7.208,92,.686,11.381,11.326,28.136-7.894,18.336-20.937-5.058-6.864-18.02-6.521-21.5,0-2.213,4.462-8.536,5.148-36.356,4.462l-33.827-1.03,23.71-20.594c13.278-11.326,26.24-20.25,29.4-19.564,3.161.343,8.536-2.4,11.7-6.178,4.742-5.835,5.058-8.237,2.213-15.445C331.086-179.183,317.492-182.272,313.7-175.065Zm40.782,75.51c-2.529,4.805-10.749,3.776-10.749-1.373,0-2.746.948-5.835,2.213-6.865C348.79-110.881,356.693-103.33,354.48-99.555Z" transform="translate(153.458 89.834)" fill="#0baef3"/>
    <path id="Path_461" data-name="Path 461" d="M111.278-148.829C105.587-146.427,98-129.265,98-118.969c0,4.462,3.794,13.043,8.22,18.877,13.594,17.848,38.885,13.729,47.1-7.551,8.536-22.653-4.11-43.933-26.556-43.246C120.446-150.889,113.491-149.859,111.278-148.829Zm26.239,19.564C145.1-116.909,139.1-105.926,125.5-107.3c-8.536-1.03-10.433-2.746-11.065-11.326-.948-6.521.632-11.326,4.426-14.415C127.085-139.562,132.143-138.532,137.517-129.265Z" transform="translate(76.729 158.329)" fill="#0db2f4"/>
    <path id="Path_462" data-name="Path 462" d="M121-132.987v12.013H424.492V-145H121Z" transform="translate(126.441 172.691)" fill="#01254c"/>
    <path id="Path_463" data-name="Path 463" d="M86.4-121.22c-5.058,5.492-1.9,12.013,5.058,10.983,3.794-.686,6.955-3.432,6.955-6.178C98.411-121.906,90.191-125,86.4-121.22Z" transform="translate(46.285 226.479)" fill="#042a51"/>
    <path id="Path_464" data-name="Path 464" d="M112.4-121.22c-5.058,5.492-1.9,12.013,5.058,10.983,3.794-.686,6.955-3.432,6.955-6.178C124.411-121.906,116.191-125,112.4-121.22Z" transform="translate(102.481 226.479)" fill="#042a51"/>
    <path id="Path_465" data-name="Path 465" d="M62.5-88.394v32.606H80.836c29.085,0,39.833-9.267,40.149-33.636,0-10.983-1.9-16.818-7.9-23C106.443-119.97,102.65-121,84-121H62.5Zm42.679-15.445C119.4-88.394,108.34-66.084,86.21-66.084H73.565V-110.7H86.21C94.746-110.7,101.069-108.3,105.179-103.839Z" transform="translate(0 231.065)" fill="#042a51"/>
    <path id="Path_466" data-name="Path 466" d="M116-115.852c0,3.775,3.477,5.148,11.381,5.148h11.381L137.5-83.245c-.948,25.742-.632,27.458,5.374,27.458s6.323-1.716,5.374-27.458L146.982-110.7h11.381c7.9,0,11.381-1.373,11.381-5.148,0-4.119-5.058-5.148-26.872-5.148S116-119.97,116-115.852Z" transform="translate(115.634 231.065)" fill="#042a51"/>
    <path id="Path_467" data-name="Path 467" d="M181.323-113.862c0,4.119-1.265,7.208-3.161,7.208-1.581,0-3.161,2.4-3.161,5.492,0,2.746,1.581,4.119,3.161,3.089,1.9-1.373,3.161,4.462,3.161,15.1,0,14.415,1.265,18.191,7.587,22.653,7.271,5.148,17.7,4.119,17.7-2.059,0-1.716-2.845-3.089-6.323-3.089-5.374,0-6.323-2.4-6.323-13.729,0-17.5.632-19.221,5.374-17.848,2.213.686,4.11-1.373,4.11-4.462,0-2.746-2.845-5.148-6.323-5.148-4.426,0-6.323-2.059-5.691-5.835a5.979,5.979,0,0,0-4.426-7.208C182.9-120.384,181.323-118.667,181.323-113.862Z" transform="translate(243.155 233.881)" fill="#042a51"/>
    <path id="Path_468" data-name="Path 468" d="M103.166-113.8c-24.343,13.386-7.9,54.23,17.388,43.59,9.168-3.775,11.381,3.089,3.161,10.3-4.11,3.775-8.852,3.775-23.71-.343-2.529-.686-4.742.686-4.742,3.432,0,12.356,36.356,10.64,40.782-1.716.948-3.089,1.9-16.818,1.9-30.89,0-24.026-.316-25.4-6.955-24.712a35.438,35.438,0,0,1-13.594-1.716C113.914-117.237,107.592-116.207,103.166-113.8Zm19.284,9.267c8.22,4.805,7.9,19.221-.632,24.026-5.058,3.089-8.22,2.746-14.226-1.716-9.484-6.521-9.8-13.386-.632-20.25C115.5-109,114.547-109,122.45-104.538Z" transform="translate(62.079 242.061)" fill="#042a51"/>
    <path id="Path_469" data-name="Path 469" d="M84.5-91.974c0,20.594.632,24.026,5.374,24.026,5.058,0,5.69-3.432,5.69-24.026S94.933-116,90.19-116,84.5-112.568,84.5-91.974Z" transform="translate(47.55 243.226)" fill="#042a51"/>
    <path id="Path_470" data-name="Path 470" d="M110-91.974c0,21.623.632,24.026,6.323,24.026s6.323-2.4,6.323-24.026S122.013-116,116.323-116,110-113.6,110-91.974Z" transform="translate(102.665 243.226)" fill="#042a51"/>
    <path id="Path_471" data-name="Path 471" d="M138.1-113.577c-1.265,1.03-2.213,4.119-2.213,6.865,0,3.775,1.265,3.775,6.323,1.03,7.587-4.462,17.7-1.716,20.233,5.148,1.265,4.119-.948,5.148-10.433,5.148-13.91,0-20.233,6.178-18.652,17.848.948,7.208,2.529,7.894,20.865,8.237l19.6.343V-87.149c0-11.67-1.581-19.907-5.058-23.339C164.028-115.98,142.214-118.039,138.1-113.577Zm26.239,27.8c0,4.805-7.271,10.983-12.962,10.983-6.639,0-10.433-5.492-7.587-10.3C146.008-89.208,164.344-89.894,164.344-85.776Z" transform="translate(152.647 243.206)" fill="#042a51"/>
    <path id="Path_472" data-name="Path 472" d="M150-92.361c0,20.594.632,23.683,5.691,23.683,4.742,0,5.374-2.059,4.426-11.67-1.265-13.386,3.794-26.085,10.433-26.085a4.772,4.772,0,0,0,4.742-4.805c0-3.089-4.11-4.462-12.646-4.462H150Z" transform="translate(189.121 243.956)" fill="#042a51"/>
    <path id="Path_473" data-name="Path 473" d="M163.742-112.676c-3.794,6.521,1.581,10.3,9.484,6.178,6.007-2.746,8.852-2.746,12.646.686,7.587,6.865,5.691,10.3-6.007,10.3-9.8,0-20.865,6.865-20.865,13.386,0,5.835,8.536,14.415,14.226,14.415,3.478-.343,11.381-.343,17.7-.343l11.381-.343L200.73-87.964c-.632-10.64-2.845-21.623-4.426-24.026C192.511-116.8,166.587-117.482,163.742-112.676Zm26.239,29.861c-1.265,7.551-18.336,10.64-18.336,3.432,0-6.865,3.161-9.267,11.7-9.267C189.033-88.651,190.93-86.934,189.981-82.816Z" transform="translate(208.573 243.335)" fill="#042a51"/>
    <path id="Path_474" data-name="Path 474" d="M190.742-112.676c-3.794,6.521,1.581,10.3,9.484,6.178,6.007-2.746,8.852-2.746,12.646.686,7.587,6.865,5.691,10.3-6.007,10.3-9.8,0-20.865,6.865-20.865,13.386,0,5.835,8.536,14.415,14.226,14.415,3.478-.343,11.381-.343,17.388-.343l11.065-.343-.948-19.564c-.632-10.64-2.845-21.623-4.426-24.026C219.511-116.8,193.587-117.482,190.742-112.676Zm26.239,29.861c-.632,3.775-4.426,6.521-9.8,7.208-6.955,1.03-8.536-.343-8.536-5.835,0-5.835,1.9-7.208,9.8-7.208C216.033-88.651,217.93-87.278,216.982-82.816Z" transform="translate(266.93 243.335)" fill="#042a51"/>
    <path id="Path_475" data-name="Path 475" d="M204.81-108.011c-4.426,10.64.632,19.221,11.065,19.221,10.749,0,16.755,5.835,12.013,10.983-2.845,3.089-6.007,3.432-13.594.343-7.9-3.432-9.8-3.089-11.381,1.03-2.529,7.208-.316,8.581,14.542,8.924,14.858,0,23.078-5.492,21.814-15.445-.948-7.551-6.007-11.326-19.284-14.415-7.587-1.716-8.536-2.746-5.058-7.208,2.213-2.746,7.587-4.805,12.645-4.119s9.168-.686,9.8-2.4c.632-2.059-5.69-3.775-13.91-4.462C209.868-116.592,207.971-115.562,204.81-108.011Z" transform="translate(301.547 243.475)" fill="#042a51"/>
    <path id="Path_476" data-name="Path 476" d="M215.546-111.673c.948,2.4,5.374,14.072,10.116,26.085,9.168,22.653,8.852,25.4-2.213,26.428-8.536.686-11.381,7.894-4.11,10.64,11.065,4.805,19.284-4.462,31.3-34.666,6.639-16.475,11.065-30.547,10.116-31.577-4.11-4.462-10.433,2.746-14.542,15.788-2.213,7.894-5.374,15.1-6.639,16.132-1.265.686-4.742-6.178-7.587-15.788-4.11-13.043-6.639-17.161-11.7-17.161C216.495-115.792,214.6-114.076,215.546-111.673Z" transform="translate(330.012 243.018)" fill="#042a51"/>
  </g>
</svg>
